<?xml version="1.0" encoding="UTF-8" standalone="no"?>
<!-- Generator: Adobe Illustrator 19.0.0, SVG Export Plug-In . SVG Version: 6.00 Build 0)  -->

<svg
   xmlns:dc="http://purl.org/dc/elements/1.1/"
   xmlns:cc="http://creativecommons.org/ns#"
   xmlns:rdf="http://www.w3.org/1999/02/22-rdf-syntax-ns#"
   xmlns:svg="http://www.w3.org/2000/svg"
   xmlns="http://www.w3.org/2000/svg"
   xmlns:sodipodi="http://sodipodi.sourceforge.net/DTD/sodipodi-0.dtd"
   xmlns:inkscape="http://www.inkscape.org/namespaces/inkscape"
   version="1.1"
   id="Capa_1"
   x="0px"
   y="0px"
   viewBox="0 0 512 512"
   style="enable-background:new 0 0 512 512;"
   xml:space="preserve"
   width="512px"
   height="512px"
   sodipodi:docname="notes.svg"
   inkscape:version="0.92.3 (2405546, 2018-03-11)"><metadata
   id="metadata759"><rdf:RDF><cc:Work
       rdf:about=""><dc:format>image/svg+xml</dc:format><dc:type
         rdf:resource="http://purl.org/dc/dcmitype/StillImage" /></cc:Work></rdf:RDF></metadata><defs
   id="defs757" /><sodipodi:namedview
   pagecolor="#ffffff"
   bordercolor="#666666"
   borderopacity="1"
   objecttolerance="10"
   gridtolerance="10"
   guidetolerance="10"
   inkscape:pageopacity="0"
   inkscape:pageshadow="2"
   inkscape:window-width="1366"
   inkscape:window-height="719"
   id="namedview755"
   showgrid="false"
   inkscape:zoom="1.0234375"
   inkscape:cx="256"
   inkscape:cy="256"
   inkscape:window-x="0"
   inkscape:window-y="22"
   inkscape:window-maximized="1"
   inkscape:current-layer="Capa_1" />
<g
   id="g692"
   style="fill:#666666">
	<g
   id="g690"
   style="fill:#666666">
		<path
   d="M285.428,341.95c-3.126,3.126-5.801,6.672-7.948,10.537l-25.615,46.108c-1.626,2.927-1.115,6.578,1.253,8.946    c1.443,1.443,3.363,2.197,5.305,2.197c1.244,0,2.497-0.309,3.64-0.944l46.109-25.615c3.864-2.147,7.41-4.821,10.537-7.948    l188.755-188.755c6.049-6.05,6.049-15.893,0-21.943l-11.336-11.336c-2.931-2.931-6.827-4.545-10.972-4.545    s-8.041,1.614-10.971,4.545L367.714,259.663V63.61c0-21.816-17.749-39.565-39.565-39.565H39.565C17.749,24.045,0,41.793,0,63.61    v320.649c0,4.142,3.358,7.5,7.5,7.5h24.564v88.695c0,4.142,3.358,7.5,7.5,7.5h320.649c4.142,0,7.5-3.358,7.5-7.5V371.066    c0-4.142-3.358-7.5-7.5-7.5c-4.142,0-7.5,3.358-7.5,7.5v101.888H79.13v-8.53c0-4.142-3.358-7.5-7.5-7.5    c-4.142,0-7.5,3.358-7.5,7.5v8.53H47.065V87.659c0-0.285,0.231-0.516,0.516-0.516h16.548v345.212c0,4.142,3.358,7.5,7.5,7.5    c4.142,0,7.5-3.358,7.5-7.5V87.143h232.987c4.142,0,7.5-3.358,7.5-7.5c0-4.142-3.358-7.5-7.5-7.5H79.13v-8.532    c0-9.276-3.218-17.811-8.584-24.564H328.15c13.545,0,24.564,11.02,24.564,24.564v8.532h-8.534c-4.142,0-7.5,3.358-7.5,7.5    c0,4.142,3.358,7.5,7.5,7.5h8.534v187.521L285.428,341.95z M64.13,72.142H47.582c-8.556,0-15.516,6.96-15.516,15.516v289.101H15    V63.61c0-13.545,11.02-24.564,24.564-24.564c13.544,0,24.565,11.019,24.565,24.564V72.142z M300.885,370.066l-23.161,12.867    l12.868-23.161c0.64-1.152,1.361-2.253,2.133-3.317l11.477,11.478C303.139,368.705,302.037,369.426,300.885,370.066z     M484.79,163.802c0.037-0.037,0.151-0.151,0.364-0.151c0.214,0,0.328,0.114,0.365,0.151l11.336,11.336    c0.202,0.201,0.202,0.529,0,0.73l-11.702,11.702l-12.067-12.067L484.79,163.802z M462.48,186.11l12.067,12.067L315.104,357.621    l-12.067-12.067L462.48,186.11z"
   fill="#FFFFFF"
   id="path688"
   style="fill:#666666" />
	</g>
</g>
<g
   id="g698"
   style="fill:#666666">
	<g
   id="g696"
   style="fill:#666666">
		<path
   d="M304.101,152.305H127.744c-4.142,0-7.5,3.358-7.5,7.5c0,4.142,3.358,7.5,7.5,7.5h176.357c4.142,0,7.5-3.358,7.5-7.5    C311.601,155.663,308.243,152.305,304.101,152.305z"
   fill="#FFFFFF"
   id="path694"
   style="fill:#666666" />
	</g>
</g>
<g
   id="g704"
   style="fill:#666666">
	<g
   id="g702"
   style="fill:#666666">
		<path
   d="M304.101,192.387H127.744c-4.142,0-7.5,3.358-7.5,7.5c0,4.142,3.358,7.5,7.5,7.5h176.357c4.142,0,7.5-3.358,7.5-7.5    C311.601,195.745,308.243,192.387,304.101,192.387z"
   fill="#FFFFFF"
   id="path700"
   style="fill:#666666" />
	</g>
</g>
<g
   id="g710"
   style="fill:#666666">
	<g
   id="g708"
   style="fill:#666666">
		<path
   d="M304.101,232.467H127.744c-4.142,0-7.5,3.358-7.5,7.5c0,4.142,3.358,7.5,7.5,7.5h176.357c4.142,0,7.5-3.358,7.5-7.5    C311.601,235.825,308.243,232.467,304.101,232.467z"
   fill="#FFFFFF"
   id="path706"
   style="fill:#666666" />
	</g>
</g>
<g
   id="g716"
   style="fill:#666666">
	<g
   id="g714"
   style="fill:#666666">
		<path
   d="M304.101,272.549H127.744c-4.142,0-7.5,3.358-7.5,7.5c0,4.142,3.358,7.5,7.5,7.5h176.357c4.142,0,7.5-3.358,7.5-7.5    C311.601,275.907,308.243,272.549,304.101,272.549z"
   fill="#FFFFFF"
   id="path712"
   style="fill:#666666" />
	</g>
</g>
<g
   id="g722"
   style="fill:#666666">
	<g
   id="g720"
   style="fill:#666666">
		<path
   d="M256.004,312.629h-128.26c-4.142,0-7.5,3.358-7.5,7.5c0,4.142,3.358,7.5,7.5,7.5h128.26c4.142,0,7.5-3.358,7.5-7.5    C263.504,315.987,260.146,312.629,256.004,312.629z"
   fill="#FFFFFF"
   id="path718"
   style="fill:#666666" />
	</g>
</g>
<g
   id="g724"
   style="fill:#666666">
</g>
<g
   id="g726"
   style="fill:#666666">
</g>
<g
   id="g728"
   style="fill:#666666">
</g>
<g
   id="g730"
   style="fill:#666666">
</g>
<g
   id="g732"
   style="fill:#666666">
</g>
<g
   id="g734"
   style="fill:#666666">
</g>
<g
   id="g736"
   style="fill:#666666">
</g>
<g
   id="g738"
   style="fill:#666666">
</g>
<g
   id="g740"
   style="fill:#666666">
</g>
<g
   id="g742"
   style="fill:#666666">
</g>
<g
   id="g744"
   style="fill:#666666">
</g>
<g
   id="g746"
   style="fill:#666666">
</g>
<g
   id="g748"
   style="fill:#666666">
</g>
<g
   id="g750"
   style="fill:#666666">
</g>
<g
   id="g752"
   style="fill:#666666">
</g>
</svg>